<?xml version="1.0" standalone="no"?><!DOCTYPE svg PUBLIC "-//W3C//DTD SVG 1.1//EN" "http://www.w3.org/Graphics/SVG/1.1/DTD/svg11.dtd"><svg t="1742987054258" class="icon" viewBox="0 0 1024 1024" version="1.1" xmlns="http://www.w3.org/2000/svg" p-id="8230" xmlns:xlink="http://www.w3.org/1999/xlink" width="200" height="200"><path d="M512.8 68.2C268 68.2 69.7 244.6 69.7 462.6c0 128 62.5 241.7 168.3 313.5 0.6 0.3 0 177.1 0 177.1l167-107.1c32.8 6.9 69.6 10.6 104.6 10.6 244.8 0 444.7-176.4 444.7-394.4S757.3 68.2 512.8 68.2z m0 739.5c-39.3 0-83.7-5.3-119.6-14.7l-110.6 68.7V750.2c0-4.4-8.1-8.4-15-13.1-94.3-63.1-152.1-162.4-152.1-274.5 0-190.5 178-345.1 395.4-345.1 217.7 0 394.7 154.6 394.7 345.1 0.4 190.5-175.5 345.1-392.8 345.1z" p-id="8231"></path><path d="M234.8 958.9v-5.7c0.2-45.5 0.5-161.3 0.1-175.3-107.1-73.2-168.4-188-168.4-315.3 0-219.2 200.2-397.5 446.3-397.5 119 0 230.7 41.2 314.6 116.1 83.9 74.9 130.1 174.8 130.1 281.1 0 219.2-200.9 397.5-447.8 397.5-34.5 0-71.4-3.7-104-10.4L234.8 958.9z m4.8-185.5c1.7 0.9 1.8 1.9 1.8 30.5v60.9c-0.1 34.7-0.2 69.3-0.2 82.7l163.3-104.7 1.3 0.3c32.5 6.8 69.4 10.5 104 10.5 243.5 0 441.6-175.5 441.6-391.3 0-104.5-45.5-202.7-128.1-276.5C740.5 112 630.2 71.3 512.8 71.3c-242.6 0-440 175.5-440 391.3 0 125.6 60.8 238.9 166.8 310.8z m39.9 93.9V750.2c0-1.8-5.8-5.5-9.2-7.7-1.5-0.9-3-1.9-4.4-2.9-97.5-65.2-153.4-166.2-153.4-277.1 0-192 178.8-348.2 398.5-348.2 219.4 0 397.9 156.2 397.9 348.2 0.1 84.6-34.7 166.2-98.1 229.7-75.2 75.3-183.8 118.5-297.9 118.5-39.4 0-83.8-5.4-119.1-14.4l-114.3 71z m231.4-746.7c-216.3 0-392.2 153.4-392.2 342 0 108.7 54.9 207.8 150.7 271.9 1.4 1 2.8 1.9 4.3 2.8 6.5 4.2 12.1 7.7 12.1 12.9v105.9l106.9-66.4 1.3 0.3c35 9.1 79.4 14.6 118.8 14.6 112.4 0 219.4-42.5 293.5-116.7 62.2-62.3 96.4-142.3 96.3-225.2-0.1-188.7-175.8-342.1-391.7-342.1z" p-id="8232"></path><path d="M711.4 374.2H317.6c-13.7 0-24.7 11.6-24.7 25.3s10.9 25.3 24.7 25.3h393.8c13.4 0 24.7-11.6 24.7-25.3s-11.3-25.3-24.7-25.3z" p-id="8233"></path><path d="M711.4 427.9H317.6c-15.3 0-27.8-12.7-27.8-28.4s12.5-28.4 27.8-28.4h393.8c15.1 0 27.8 13 27.8 28.4s-12.7 28.4-27.8 28.4z m-393.8-50.5c-11.9 0-21.5 9.9-21.5 22.2s9.7 22.2 21.5 22.2h393.8c11.7 0 21.5-10.2 21.5-22.2s-9.9-22.2-21.5-22.2H317.6z" p-id="8234"></path><path d="M678.3 561.9c0-11.6-9.7-21.2-21.2-21.2H369.8c-11.6 0-21.2 9.4-21.2 21.2v6.6c0 11.6 9.4 21.5 21.2 21.5h287.3c11.6 0 21.2-10 21.2-21.5v-6.6z" p-id="8235"></path><path d="M657.1 593.1H369.8c-13.4 0-24.4-11.1-24.4-24.7v-6.6c0-13.4 10.9-24.4 24.4-24.4h287.3c13.2 0 24.4 11.2 24.4 24.4v6.6c-0.1 13.4-11.2 24.7-24.4 24.7z m-287.3-49.3c-10 0-18.1 8.1-18.1 18.1v6.6c0 10.2 8.1 18.4 18.1 18.4h287.3c9.8 0 18.1-8.4 18.1-18.4v-6.6c0-9.8-8.3-18.1-18.1-18.1H369.8z" p-id="8236"></path></svg>